<svg version="1" xmlns="http://www.w3.org/2000/svg" width="782.667" height="782.667" viewBox="0 0 587.000000 587.000000"><path d="M154.4 28.1c-22.2 3.7-40.2 19.2-47.6 40.8-3.2 9.3-3.2 24.7-.1 34.6 6.2 19.4 20.4 33.6 40.3 40.1 5.1 1.7 11.7 1.9 82.3 2.4 74.6.5 76.9.6 78.3 2.4 3.4 4.7 2.6 6.1-32.3 59.5-136.6 209.3-172.6 264.8-173 266.1-.5 2 23.1 25.2 34.2 33.6 32.2 24.5 66.4 40.2 104.5 48.2 18.3 3.9 26.3 4.4 57.5 4 27.9-.4 31-.6 43.4-3.2 52-10.6 95.8-34.1 132.9-71.3l10.2-10.2-3-5c-4.4-7-15.7-17.3-23.2-21-13.6-6.7-8.9-6.4-101.1-7-81.5-.6-83.9-.7-85.3-2.5-.8-1.1-1.4-3.2-1.4-4.7 0-1.8 11.8-20.8 37.3-60 20.6-31.6 65.2-100.2 99.2-152.4 68.4-105.1 70.6-108.5 73.4-116 11.5-30.7-5.8-65.7-37.9-76.8l-6.5-2.2-138.5-.1c-76.2-.1-140.8.2-143.6.7z"/></svg>